<svg xmlns="http://www.w3.org/2000/svg" viewBox="0 0 1800 294.3" aria-labelledby="aristech-logo-title" role="img">
    <title id="aristech-logo-title">Aristech Logo</title>
    <g class="logo-text">
        <path fill="#1B1A19"
              d="M1567.8,241.6l21.2,32l-4.1,2.8c-17.5,12.1-37,18.2-58.2,18.2c-25.1,0-49.4-6.4-66.2-26c-16.2-18.8-20.4-42.1-17.7-66.4l2.5-22.2c2.9-25.2,13.9-46.7,31.4-64.8c19-19.7,43.2-28.1,70.4-28.1c22.7,0,43.6,6.8,56.9,26l2.4,3.5l-28,26.7l-3.4-4.6c-7.4-10.1-17.8-14-30.1-14c-14.8,0-27.5,4.6-37.6,15.6c-10.4,11.4-15.8,25.1-17.5,40.4l-2.6,22.6c-1.6,13.6,0.6,26.6,8.6,37.9c8,11.3,20.5,15,34,15c12.5,0,23.7-4,33.8-11.4L1567.8,241.6L1567.8,241.6z M1306.2,219.6c0.6,9.8,3.9,18.8,11.2,26c8.9,8.9,21.1,11.7,33.4,11.7c15.6,0,28.6-6.5,39.8-17.1l3.8-3.6l24.4,27.2l-3.4,3.4c-18.7,18.4-41.4,27.4-67.5,27.4c-25.2,0-51.2-5.8-67.7-26.4c-15.4-19.2-19-42.6-16-66.5l2.6-21c3.1-25.4,14-47.2,31.9-65.4c19.3-19.7,43.5-28.3,70.8-28.3c16.9,0,33.3,4,46.2,15.5c12,10.6,17.7,24.2,17.7,40.2c0,25.6-14.3,43.8-35.8,56.4C1371.1,214.5,1336.7,219,1306.2,219.6L1306.2,219.6z M1308.3,183.6c19.9-0.5,42.3-3.1,60.1-11.2c11.7-5.3,21.9-13.5,21.9-27.3c0-6.2-1.6-12-6.6-16c-5.1-4.1-11.3-5.7-17.8-5.7c-16.5,0-30.1,5.9-40.6,18.7C1315.4,154.2,1310.1,168.3,1308.3,183.6L1308.3,183.6z M1206,90.6l5.6-53.1l-44.2,9.7l-19.7,173.5c-5,48.9,18.4,73.9,67.3,73.9c16.2,0,31.4-4,45.1-12.7l3.5-2.3l-14.4-35.4l-5.2,3.9c-7.1,5.2-15,7.6-23.8,7.6c-8.5,0-17.8-1.7-23.7-8.4c-5.8-6.6-6.4-15.5-5.5-23.9l10.9-95.5h55.2l3.9-37.3H1206L1206,90.6z M1067.8,90.6h58.9l-4.2,37.3h-55.9c-8.9,0-18.6,1.3-26.3,6.2c-5.1,3.2-8.9,7.4-8.9,13.7c0,1.8,0.3,3.5,1.1,5.1c2.7,5.6,10.3,9.5,15.7,11.9c9.2,4.1,19.1,7.1,28.6,10.7c13,4.9,26.9,11.4,35.7,22.6c19.7,25.1,10.4,59.8-14.7,77.3c-17.8,12.4-39.3,16.7-60.6,16.7h-51.8l4.1-37.3h4.5c14.5,0,28.9,0,43.4,0c10.2,0,20.4-1.9,29.3-7.2c7.5-4.5,14.2-12.7,9.9-21.7c-4-8.4-17.2-14.7-25.6-17.7c-20.5-7.4-36.3-8.3-51.8-26.6c-7.1-8.3-10.3-18.3-10.3-29.2c0-19.3,8.5-34.5,24.2-45.5c15.7-11,33.5-16,52.7-16.3C1066.4,90.5,1067.1,90.6,1067.8,90.6L1067.8,90.6z M804.9,111.9c17.9-19.9,37.3-21.5,65-21.4l5.6,0l-4.1,37.3h-4.5c-22.5,0-33.3,2.5-45.3,22.7c-12,20.1-17,47-19.5,70l-7.8,71.5h-43.6l15.7-144.7c1.7-12.2-3-14.5-14.4-12.1l-7.2,1.6l6.4-39l3.5-0.7c4.9-0.9,9.9-1.4,14.9-1.4C780.7,95.8,797.5,101.5,804.9,111.9L804.9,111.9z M658.6,263.8c-15.3,19.3-35.5,30.8-61.7,30.8c-17.6,0-33.4-5.4-45.3-18.8c-13.1-14.8-16.4-36.3-16.4-55.4c0-10.1,1-20.1,2.7-30.1c2-11.9,6-23.6,10.7-34.7c5.2-12.2,11.9-23.6,20.5-33.8c9.3-11.1,21.7-19.1,34.9-25c15.8-7.1,32.8-9.9,50.1-9.9c19.5,0,38.6,3.3,56.5,11.1l0.2,0.1l6.4,3.4l-0.6,3.6c-3.3,19.6-7,39.1-10.3,58.7c-4,23.8-7.8,48.3-9.1,72.4c-0.5,8.9,0,18.4,11.3,18.4h15.5l-4.1,37.3h-4.5c-13.3,0-30.1,1.1-41.8-6C665.1,281,660.8,272.8,658.6,263.8L658.6,263.8z M671,125.5c-6-0.9-12.1-1.3-18.2-1.3c-12,0-23.6,2.5-34,8.7c-9.5,5.7-17.1,13.2-22.4,22.8c-5.4,9.7-9.4,19.9-12.1,30.7c-2.6,10.7-4,21.7-4,32.7c0,9.2,1.1,21.6,6.8,29.3c3.6,4.9,8.2,8.5,14.6,8.5c9.6,0,17.6-4.7,24.4-11.2c9-8.6,15.7-19.2,20.7-30.5c5.6-12.7,10.3-25.7,14-39c3.6-12.7,6.3-25.7,8.1-38.8L671,125.5L671,125.5z M1632.8,46c-10.2,80.1-19,160.3-27.8,240.5l-0.6,5.6h43.6l8.1-77.4c3.3-31.2,24.5-89.6,62.9-89.6c6,0,12.8,1.1,16.4,6.4c3.6,5.3,4.4,11.4,3.7,17.6l-5.2,44.7l-6.4,54.9c-1.2,12.3,2.5,23.6,11.3,32.2c8.5,8.3,19.7,11.2,31.3,11.2c7.1,0,14.2,0,21.3,0h4.5l4.1-37.3h-19.5c-7.1,0-7.4-6.3-6.9-12.1c3.4-32,6.8-64,10.2-96.1c2.1-15-1.1-28.9-10.2-41.1c-10.3-13.9-26.3-18.5-43-18.5c-22.9,0-43.9,10-62,23.4l7.8-66.8c1.1-11.9-1-23.7-9.8-32.2c-8.5-8.3-20.6-11.2-32.1-11.2c-4.5,0-9,0-13.5,0h-4.5l-4.1,37.3h11.7C1631,37.5,1633.4,39,1632.8,46L1632.8,46z M928.5,47.3c-6,0-10.7-4.9-10-11l3.1-26.3c0.7-5.6,5.7-9.8,11.3-9.8h29c6,0,10.7,4.9,10,11l-3.1,26.3c-0.7,5.6-5.7,9.8-11.3,9.8H928.5L928.5,47.3z M944.7,242.8c-0.5,6.1,0.8,12,8,12h19.5l-4.1,37.3h-4.5c-7.1,0-14.2,0-21.3,0c-11.6,0-22.8-2.9-31.3-11.2c-8.7-8.5-10.9-20.3-9.8-32.2c4.4-37.5,8.9-74.9,13.7-112.4c0.6-7-1.8-8.4-8.6-8.4h-17.8l4-37.3h4.5c6.5,0,13.1,0,19.6,0c11.6,0,22.8,2.9,31.3,11.2c8.7,8.5,10.9,20.3,9.8,32.2C953.7,170.2,949.3,206.5,944.7,242.8z"/>
    </g>
    <g class="logo-icon">
        <path fill="#1B1A19"
              d="M172.7,9.6c104.6,0,50,233.5,166.4,233.5c96.3,0,95.1-156.1,5.9-152.9l0,0c119.1-33.8,153.9,201.5-3.2,201.5c-117.2,0-85.1-204.8-171.7-204.2C58.2,88.3-8.1,394.1,209.3,195.7C175.7,260.1,50.8,345.9,8,246.2C-31,155,80.2,9.6,172.7,9.6z"/>
    </g>
</svg>