<svg width="200" height="88" viewBox="0 0 200 88" fill="none" xmlns="http://www.w3.org/2000/svg">
                            <path d="M10.886 57.348C5.845 57.348 4.19 55.116 4.19 50.22V28.041C4.19 23.217 6.494 20.913 10.886 20.913H32.128V25.089H12.398C9.734 25.089 8.87 26.025 8.87 28.977V49.427C8.87 52.163 9.59 53.243 12.398 53.243H35.728V5.647H40.336V57.348H10.886Z" fill="#303030"></path>
                            <path d="M50.197 72.613V68.509H76.695C79.575 68.509 80.367 67.357 80.367 64.476V25.089H57.037C54.229 25.089 53.509 26.169 53.509 29.049V49.426C53.509 52.162 54.229 53.242 57.037 53.242H76.767V57.346H55.453C50.485 57.346 48.828 55.114 48.828 50.218V28.041C48.828 23.145 50.484 20.913 55.453 20.913H84.975V65.485C84.975 70.381 83.391 72.613 78.422 72.613H50.197Z" fill="#303030"></path>
                            <path d="M93.541 57.348V14C93.541 7.879 95.629 5.647 100.166 5.647H110.823V9.824H101.534C99.158 9.824 98.222 10.904 98.222 14V20.913H110.535V24.873H98.221V57.348H93.541Z" fill="#303030"></path>
                            <path d="M117.875 57.348V53.244H145.31C147.974 53.244 148.694 52.308 148.694 49.86V43.739C148.694 41.867 147.974 41.003 145.741 41.003H123.347C119.531 41.003 117.874 38.986 117.874 35.818V27.249C117.874 22.929 119.53 20.913 124.427 20.913H153.013V25.089H126.011C123.275 25.089 122.555 26.025 122.555 28.617V34.017C122.555 36.033 123.275 37.041 125.579 37.041H147.973C151.717 37.041 153.446 39.057 153.446 42.153V51.01C153.446 55.33 151.717 57.346 146.893 57.346H117.875V57.348Z" fill="#303030"></path>
                            <path d="M93.989 72.443V65.243H96.449C96.649 65.243 96.845 65.248 97.039 65.259C97.232 65.269 97.422 65.292 97.609 65.328C97.796 65.365 97.977 65.42 98.154 65.493C98.33 65.566 98.502 65.663 98.669 65.783C98.909 65.957 99.106 66.168 99.259 66.418C99.412 66.668 99.534 66.932 99.624 67.208C99.714 67.485 99.777 67.765 99.814 68.049C99.851 68.332 99.869 68.594 99.869 68.833C99.869 69.073 99.854 69.316 99.824 69.563C99.794 69.81 99.745 70.051 99.679 70.288C99.612 70.525 99.524 70.752 99.414 70.969C99.304 71.186 99.165 71.384 98.999 71.564C98.832 71.751 98.651 71.901 98.454 72.014C98.257 72.127 98.051 72.215 97.834 72.279C97.618 72.342 97.393 72.385 97.159 72.409C96.925 72.433 96.689 72.444 96.449 72.444H93.989V72.443ZM94.669 71.863H96.299C96.606 71.863 96.894 71.844 97.164 71.808C97.434 71.771 97.709 71.679 97.989 71.533C98.229 71.413 98.426 71.25 98.579 71.043C98.732 70.837 98.854 70.611 98.944 70.368C99.034 70.125 99.097 69.87 99.134 69.603C99.171 69.336 99.189 69.08 99.189 68.832C99.189 68.572 99.172 68.308 99.139 68.037C99.106 67.767 99.042 67.511 98.949 67.267C98.856 67.023 98.729 66.8 98.569 66.597C98.409 66.394 98.202 66.225 97.949 66.092C97.736 65.979 97.482 65.905 97.189 65.871C96.896 65.838 96.599 65.821 96.299 65.821H94.669V71.863Z" fill="#303030"></path>
                            <path d="M101.489 69.993C101.489 70.273 101.526 70.538 101.599 70.788C101.672 71.038 101.78 71.255 101.924 71.438C102.068 71.621 102.249 71.768 102.469 71.877C102.689 71.987 102.943 72.042 103.229 72.042C103.622 72.042 103.959 71.939 104.239 71.732C104.519 71.525 104.706 71.232 104.799 70.852H105.469C105.396 71.098 105.299 71.327 105.179 71.537C105.059 71.747 104.909 71.931 104.729 72.087C104.549 72.244 104.335 72.366 104.089 72.452C103.842 72.539 103.556 72.582 103.229 72.582C102.815 72.582 102.459 72.513 102.159 72.372C101.859 72.232 101.613 72.041 101.419 71.798C101.226 71.554 101.082 71.268 100.989 70.938C100.896 70.608 100.849 70.252 100.849 69.873C100.849 69.494 100.904 69.137 101.014 68.804C101.124 68.47 101.28 68.179 101.484 67.929C101.687 67.679 101.936 67.482 102.229 67.338C102.522 67.195 102.855 67.123 103.229 67.123C103.942 67.123 104.502 67.368 104.909 67.858C105.316 68.348 105.516 69.06 105.509 69.993H101.489V69.993ZM104.869 69.493C104.869 69.24 104.834 69.002 104.764 68.778C104.694 68.554 104.59 68.361 104.454 68.198C104.317 68.035 104.145 67.905 103.939 67.808C103.733 67.711 103.496 67.662 103.229 67.662C102.962 67.662 102.727 67.712 102.524 67.812C102.32 67.912 102.147 68.045 102.004 68.211C101.86 68.378 101.746 68.571 101.659 68.791C101.573 69.012 101.516 69.245 101.489 69.491H104.869V69.493Z" fill="#303030"></path>
                            <path d="M110.189 67.263H110.789V72.443H110.189V71.723C110.109 71.816 110.019 71.912 109.919 72.013C109.819 72.113 109.704 72.204 109.574 72.287C109.444 72.371 109.292 72.44 109.119 72.497C108.945 72.554 108.745 72.582 108.519 72.582C108.172 72.582 107.882 72.534 107.649 72.437C107.416 72.34 107.227 72.206 107.084 72.032C106.94 71.859 106.837 71.657 106.774 71.428C106.711 71.198 106.679 70.947 106.679 70.673V67.263H107.279V70.662C107.279 71.109 107.383 71.451 107.589 71.687C107.795 71.923 108.136 72.041 108.609 72.041C108.856 72.041 109.077 71.993 109.274 71.896C109.471 71.799 109.636 71.665 109.769 71.491C109.902 71.318 110.005 71.111 110.079 70.871C110.152 70.632 110.189 70.368 110.189 70.081V67.263V67.263Z" fill="#303030"></path>
                            <path d="M114.059 72.462C113.986 72.476 113.889 72.499 113.769 72.532C113.649 72.565 113.516 72.582 113.369 72.582C113.069 72.582 112.841 72.508 112.684 72.357C112.527 72.206 112.449 71.939 112.449 71.552V67.762H111.719V67.262H112.449V65.822H113.049V67.262H114.019V67.762H113.049V71.312C113.049 71.439 113.052 71.548 113.059 71.642C113.065 71.735 113.085 71.812 113.119 71.871C113.152 71.932 113.204 71.975 113.274 72.001C113.344 72.028 113.442 72.041 113.569 72.041C113.649 72.041 113.731 72.035 113.814 72.021C113.897 72.007 113.979 71.991 114.059 71.971V72.462Z" fill="#303030"></path>
                            <path d="M115.369 70.823C115.462 71.27 115.631 71.585 115.874 71.768C116.117 71.952 116.465 72.042 116.919 72.042C117.139 72.042 117.329 72.016 117.489 71.962C117.649 71.909 117.781 71.837 117.884 71.747C117.987 71.657 118.066 71.556 118.119 71.442C118.172 71.328 118.199 71.209 118.199 71.082C118.199 70.829 118.117 70.641 117.954 70.518C117.791 70.395 117.586 70.298 117.339 70.228C117.092 70.158 116.825 70.098 116.539 70.048C116.252 69.997 115.985 69.923 115.739 69.822C115.492 69.722 115.287 69.579 115.124 69.392C114.96 69.205 114.879 68.942 114.879 68.602C114.879 68.168 115.037 67.814 115.354 67.537C115.67 67.261 116.119 67.122 116.699 67.122C117.259 67.122 117.714 67.247 118.064 67.497C118.414 67.747 118.626 68.166 118.699 68.752H118.089C118.035 68.353 117.884 68.071 117.634 67.907C117.384 67.744 117.069 67.662 116.689 67.662C116.309 67.662 116.019 67.744 115.819 67.907C115.619 68.071 115.519 68.286 115.519 68.553C115.519 68.786 115.601 68.964 115.764 69.087C115.928 69.211 116.133 69.311 116.379 69.388C116.626 69.464 116.892 69.533 117.179 69.593C117.466 69.653 117.732 69.738 117.979 69.848C118.226 69.957 118.43 70.106 118.594 70.292C118.758 70.48 118.839 70.739 118.839 71.072C118.839 71.319 118.785 71.537 118.679 71.727C118.573 71.916 118.426 72.076 118.239 72.202C118.052 72.329 117.831 72.424 117.574 72.487C117.317 72.55 117.035 72.582 116.729 72.582C116.422 72.582 116.15 72.537 115.914 72.447C115.677 72.357 115.476 72.232 115.309 72.072C115.142 71.912 115.013 71.725 114.919 71.512C114.825 71.298 114.772 71.069 114.759 70.822H115.369V70.823Z" fill="#303030"></path>
                            <path d="M123.689 68.893C123.582 68.506 123.399 68.205 123.139 67.988C122.879 67.771 122.549 67.663 122.149 67.663C121.842 67.663 121.579 67.726 121.359 67.853C121.139 67.98 120.959 68.148 120.819 68.358C120.679 68.568 120.575 68.804 120.509 69.068C120.442 69.332 120.409 69.596 120.409 69.863C120.409 70.136 120.441 70.403 120.504 70.663C120.567 70.924 120.669 71.157 120.809 71.363C120.949 71.57 121.129 71.735 121.349 71.858C121.569 71.981 121.836 72.043 122.149 72.043C122.595 72.043 122.954 71.92 123.224 71.674C123.494 71.427 123.666 71.087 123.739 70.653H124.379C124.325 70.94 124.24 71.202 124.124 71.438C124.007 71.674 123.857 71.877 123.674 72.048C123.49 72.218 123.272 72.349 123.019 72.443C122.766 72.537 122.476 72.583 122.149 72.583C121.735 72.583 121.379 72.514 121.079 72.373C120.779 72.233 120.533 72.042 120.339 71.799C120.146 71.555 120.002 71.267 119.909 70.934C119.816 70.6 119.769 70.244 119.769 69.864C119.769 69.504 119.82 69.159 119.924 68.829C120.028 68.499 120.179 68.208 120.379 67.954C120.579 67.701 120.827 67.499 121.124 67.35C121.42 67.2 121.762 67.124 122.149 67.124C122.749 67.124 123.234 67.268 123.604 67.555C123.974 67.841 124.206 68.288 124.299 68.895H123.689V68.893Z" fill="#303030"></path>
                            <path d="M125.579 72.443V65.243H126.179V67.983C126.419 67.73 126.667 67.523 126.924 67.363C127.181 67.203 127.489 67.123 127.849 67.123C128.169 67.123 128.465 67.179 128.739 67.288C129.012 67.398 129.242 67.59 129.429 67.863C129.556 68.05 129.631 68.242 129.654 68.438C129.677 68.634 129.689 68.839 129.689 69.053V72.443H129.089V69.063C129.089 68.596 128.985 68.247 128.779 68.013C128.573 67.779 128.229 67.662 127.749 67.662C127.562 67.662 127.392 67.69 127.239 67.747C127.086 67.804 126.947 67.879 126.824 67.973C126.701 68.066 126.595 68.173 126.509 68.292C126.423 68.412 126.356 68.539 126.309 68.673C126.249 68.839 126.212 68.999 126.199 69.152C126.186 69.305 126.179 69.472 126.179 69.652V72.442H125.579V72.443Z" fill="#303030"></path>
                            <path d="M131.509 69.993C131.509 70.273 131.546 70.538 131.619 70.788C131.692 71.038 131.8 71.255 131.944 71.438C132.088 71.621 132.269 71.768 132.489 71.877C132.709 71.987 132.963 72.042 133.249 72.042C133.642 72.042 133.979 71.939 134.259 71.732C134.539 71.525 134.726 71.232 134.819 70.852H135.489C135.416 71.098 135.319 71.327 135.199 71.537C135.079 71.747 134.929 71.931 134.749 72.087C134.569 72.244 134.355 72.366 134.109 72.452C133.862 72.539 133.576 72.582 133.249 72.582C132.835 72.582 132.479 72.513 132.179 72.372C131.879 72.232 131.633 72.041 131.439 71.798C131.246 71.554 131.102 71.268 131.009 70.938C130.916 70.608 130.869 70.252 130.869 69.873C130.869 69.494 130.924 69.137 131.034 68.804C131.144 68.47 131.3 68.179 131.504 67.929C131.707 67.679 131.956 67.482 132.249 67.338C132.542 67.195 132.875 67.123 133.249 67.123C133.962 67.123 134.522 67.368 134.929 67.858C135.336 68.348 135.536 69.06 135.529 69.993H131.509V69.993ZM134.889 69.493C134.889 69.24 134.854 69.002 134.784 68.778C134.714 68.554 134.61 68.361 134.474 68.198C134.337 68.035 134.165 67.905 133.959 67.808C133.753 67.711 133.516 67.662 133.249 67.662C132.982 67.662 132.747 67.712 132.544 67.812C132.34 67.912 132.167 68.045 132.024 68.211C131.88 68.378 131.766 68.571 131.679 68.791C131.593 69.012 131.536 69.245 131.509 69.491H134.889V69.493Z" fill="#303030"></path>
                            <path d="M142.629 69.303V68.723H145.709V72.443H145.129V71.213C145.002 71.427 144.857 71.622 144.694 71.799C144.53 71.975 144.342 72.125 144.129 72.248C143.916 72.372 143.669 72.467 143.389 72.533C143.109 72.599 142.792 72.634 142.439 72.634C141.985 72.634 141.565 72.554 141.179 72.394C140.793 72.234 140.459 71.996 140.179 71.679C139.899 71.362 139.68 70.963 139.524 70.484C139.367 70.004 139.289 69.444 139.289 68.804C139.289 68.277 139.356 67.785 139.489 67.328C139.622 66.872 139.827 66.474 140.104 66.139C140.38 65.802 140.727 65.537 141.144 65.344C141.561 65.151 142.053 65.054 142.619 65.054C142.999 65.054 143.354 65.1 143.684 65.194C144.014 65.288 144.311 65.429 144.574 65.619C144.837 65.809 145.059 66.046 145.239 66.329C145.419 66.612 145.549 66.948 145.629 67.334H144.929C144.869 67.067 144.767 66.828 144.624 66.614C144.48 66.401 144.309 66.222 144.109 66.079C143.909 65.936 143.686 65.826 143.439 65.749C143.192 65.673 142.936 65.635 142.669 65.635C142.195 65.635 141.789 65.718 141.449 65.885C141.109 66.051 140.829 66.286 140.609 66.589C140.389 66.893 140.227 67.256 140.124 67.68C140.02 68.103 139.969 68.568 139.969 69.075C139.969 69.475 140.027 69.855 140.144 70.215C140.261 70.575 140.431 70.892 140.654 71.165C140.877 71.438 141.151 71.655 141.474 71.815C141.797 71.975 142.166 72.055 142.579 72.055C142.772 72.055 142.973 72.034 143.179 71.99C143.386 71.947 143.586 71.875 143.779 71.775C143.972 71.675 144.152 71.545 144.319 71.385C144.486 71.225 144.629 71.028 144.749 70.794C144.862 70.567 144.94 70.331 144.984 70.084C145.027 69.838 145.052 69.578 145.059 69.305H142.629V69.303Z" fill="#303030"></path>
                            <path d="M147.629 69.993C147.629 70.273 147.666 70.538 147.739 70.788C147.812 71.038 147.92 71.255 148.064 71.438C148.208 71.621 148.389 71.768 148.609 71.877C148.829 71.987 149.083 72.042 149.369 72.042C149.762 72.042 150.099 71.939 150.379 71.732C150.659 71.525 150.846 71.232 150.939 70.852H151.609C151.536 71.098 151.439 71.327 151.319 71.537C151.199 71.747 151.049 71.931 150.869 72.087C150.689 72.244 150.475 72.366 150.229 72.452C149.982 72.539 149.696 72.582 149.369 72.582C148.955 72.582 148.599 72.513 148.299 72.372C147.999 72.232 147.753 72.041 147.559 71.798C147.366 71.554 147.222 71.268 147.129 70.938C147.036 70.608 146.989 70.252 146.989 69.873C146.989 69.494 147.044 69.137 147.154 68.804C147.264 68.47 147.42 68.179 147.624 67.929C147.827 67.679 148.076 67.482 148.369 67.338C148.662 67.195 148.995 67.123 149.369 67.123C150.082 67.123 150.642 67.368 151.049 67.858C151.456 68.348 151.656 69.06 151.649 69.993H147.629V69.993ZM151.009 69.493C151.009 69.24 150.974 69.002 150.904 68.778C150.834 68.554 150.73 68.361 150.594 68.198C150.457 68.035 150.285 67.905 150.079 67.808C149.873 67.711 149.636 67.662 149.369 67.662C149.102 67.662 148.867 67.712 148.664 67.812C148.46 67.912 148.287 68.045 148.144 68.211C148 68.378 147.886 68.571 147.799 68.791C147.713 69.012 147.656 69.245 147.629 69.491H151.009V69.493Z" fill="#303030"></path>
                            <path d="M153.169 70.823C153.262 71.27 153.431 71.585 153.674 71.768C153.917 71.952 154.265 72.042 154.719 72.042C154.939 72.042 155.129 72.016 155.289 71.962C155.449 71.909 155.581 71.837 155.684 71.747C155.787 71.657 155.866 71.556 155.919 71.442C155.972 71.328 155.999 71.209 155.999 71.082C155.999 70.829 155.917 70.641 155.754 70.518C155.591 70.395 155.386 70.298 155.139 70.228C154.892 70.158 154.625 70.098 154.339 70.048C154.052 69.997 153.785 69.923 153.539 69.822C153.292 69.722 153.087 69.579 152.924 69.392C152.76 69.205 152.679 68.942 152.679 68.602C152.679 68.168 152.837 67.814 153.154 67.537C153.47 67.261 153.919 67.122 154.499 67.122C155.059 67.122 155.514 67.247 155.864 67.497C156.214 67.747 156.426 68.166 156.499 68.752H155.889C155.835 68.353 155.684 68.071 155.434 67.907C155.184 67.744 154.869 67.662 154.489 67.662C154.109 67.662 153.819 67.744 153.619 67.907C153.419 68.071 153.319 68.286 153.319 68.553C153.319 68.786 153.401 68.964 153.564 69.087C153.728 69.211 153.933 69.311 154.179 69.388C154.426 69.464 154.692 69.533 154.979 69.593C155.266 69.653 155.532 69.738 155.779 69.848C156.026 69.957 156.23 70.106 156.394 70.292C156.558 70.48 156.639 70.739 156.639 71.072C156.639 71.319 156.585 71.537 156.479 71.727C156.373 71.916 156.226 72.076 156.039 72.202C155.852 72.329 155.631 72.424 155.374 72.487C155.117 72.55 154.835 72.582 154.529 72.582C154.222 72.582 153.95 72.537 153.714 72.447C153.477 72.357 153.276 72.232 153.109 72.072C152.942 71.912 152.813 71.725 152.719 71.512C152.625 71.298 152.572 71.069 152.559 70.822H153.169V70.823Z" fill="#303030"></path>
                            <path d="M158.189 69.993C158.189 70.273 158.226 70.538 158.299 70.788C158.372 71.038 158.48 71.255 158.624 71.438C158.768 71.621 158.949 71.768 159.169 71.877C159.389 71.987 159.643 72.042 159.929 72.042C160.322 72.042 160.659 71.939 160.939 71.732C161.219 71.525 161.406 71.232 161.499 70.852H162.169C162.096 71.098 161.999 71.327 161.879 71.537C161.759 71.747 161.609 71.931 161.429 72.087C161.249 72.244 161.035 72.366 160.789 72.452C160.542 72.539 160.256 72.582 159.929 72.582C159.515 72.582 159.159 72.513 158.859 72.372C158.559 72.232 158.313 72.041 158.119 71.798C157.926 71.554 157.782 71.268 157.689 70.938C157.596 70.608 157.549 70.252 157.549 69.873C157.549 69.494 157.604 69.137 157.714 68.804C157.824 68.47 157.98 68.179 158.184 67.929C158.387 67.679 158.636 67.482 158.929 67.338C159.222 67.195 159.555 67.123 159.929 67.123C160.642 67.123 161.202 67.368 161.609 67.858C162.016 68.348 162.216 69.06 162.209 69.993H158.189V69.993ZM161.569 69.493C161.569 69.24 161.534 69.002 161.464 68.778C161.394 68.554 161.29 68.361 161.154 68.198C161.017 68.035 160.845 67.905 160.639 67.808C160.433 67.711 160.196 67.662 159.929 67.662C159.662 67.662 159.427 67.712 159.224 67.812C159.02 67.912 158.847 68.045 158.704 68.211C158.56 68.378 158.446 68.571 158.359 68.791C158.273 69.012 158.216 69.245 158.189 69.491H161.569V69.493Z" fill="#303030"></path>
                            <path d="M163.469 72.443V65.243H164.069V72.443H163.469Z" fill="#303030"></path>
                            <path d="M165.689 72.443V65.243H166.289V72.443H165.689Z" fill="#303030"></path>
                            <path d="M168.168 70.823C168.261 71.27 168.43 71.585 168.673 71.768C168.916 71.952 169.264 72.042 169.718 72.042C169.938 72.042 170.128 72.016 170.288 71.962C170.448 71.909 170.58 71.837 170.683 71.747C170.786 71.657 170.865 71.556 170.918 71.442C170.971 71.328 170.998 71.209 170.998 71.082C170.998 70.829 170.916 70.641 170.753 70.518C170.59 70.395 170.385 70.298 170.138 70.228C169.891 70.158 169.624 70.098 169.338 70.048C169.051 69.997 168.784 69.923 168.538 69.822C168.291 69.722 168.086 69.579 167.923 69.392C167.759 69.205 167.678 68.942 167.678 68.602C167.678 68.168 167.836 67.814 168.153 67.537C168.469 67.261 168.918 67.122 169.498 67.122C170.058 67.122 170.513 67.247 170.863 67.497C171.213 67.747 171.425 68.166 171.498 68.752H170.888C170.834 68.353 170.683 68.071 170.433 67.907C170.183 67.744 169.868 67.662 169.488 67.662C169.108 67.662 168.818 67.744 168.618 67.907C168.418 68.071 168.318 68.286 168.318 68.553C168.318 68.786 168.4 68.964 168.563 69.087C168.727 69.211 168.932 69.311 169.178 69.388C169.425 69.464 169.691 69.533 169.978 69.593C170.265 69.653 170.531 69.738 170.778 69.848C171.025 69.957 171.229 70.106 171.393 70.292C171.557 70.48 171.638 70.739 171.638 71.072C171.638 71.319 171.584 71.537 171.478 71.727C171.372 71.916 171.225 72.076 171.038 72.202C170.851 72.329 170.63 72.424 170.373 72.487C170.116 72.55 169.834 72.582 169.528 72.582C169.221 72.582 168.949 72.537 168.713 72.447C168.476 72.357 168.275 72.232 168.108 72.072C167.941 71.912 167.812 71.725 167.718 71.512C167.624 71.298 167.571 71.069 167.558 70.822H168.168V70.823Z" fill="#303030"></path>
                            <path d="M176.489 68.893C176.382 68.506 176.199 68.205 175.939 67.988C175.679 67.771 175.349 67.663 174.949 67.663C174.642 67.663 174.379 67.726 174.159 67.853C173.939 67.98 173.759 68.148 173.619 68.358C173.479 68.568 173.375 68.804 173.309 69.068C173.242 69.332 173.209 69.596 173.209 69.863C173.209 70.136 173.241 70.403 173.304 70.663C173.367 70.924 173.469 71.157 173.609 71.363C173.749 71.57 173.929 71.735 174.149 71.858C174.369 71.981 174.636 72.043 174.949 72.043C175.395 72.043 175.754 71.92 176.024 71.674C176.294 71.427 176.466 71.087 176.539 70.653H177.179C177.125 70.94 177.04 71.202 176.924 71.438C176.807 71.674 176.657 71.877 176.474 72.048C176.29 72.218 176.072 72.349 175.819 72.443C175.566 72.537 175.276 72.583 174.949 72.583C174.535 72.583 174.179 72.514 173.879 72.373C173.579 72.233 173.333 72.042 173.139 71.799C172.946 71.555 172.802 71.267 172.709 70.934C172.616 70.6 172.569 70.244 172.569 69.864C172.569 69.504 172.62 69.159 172.724 68.829C172.828 68.499 172.979 68.208 173.179 67.954C173.379 67.701 173.627 67.499 173.924 67.35C174.22 67.2 174.562 67.124 174.949 67.124C175.549 67.124 176.034 67.268 176.404 67.555C176.774 67.841 177.006 68.288 177.099 68.895H176.489V68.893Z" fill="#303030"></path>
                            <path d="M178.379 72.443V65.243H178.979V67.983C179.219 67.73 179.467 67.523 179.724 67.363C179.981 67.203 180.289 67.123 180.649 67.123C180.969 67.123 181.265 67.179 181.539 67.288C181.812 67.398 182.042 67.59 182.229 67.863C182.356 68.05 182.431 68.242 182.454 68.438C182.477 68.634 182.489 68.839 182.489 69.053V72.443H181.889V69.063C181.889 68.596 181.785 68.247 181.579 68.013C181.373 67.779 181.029 67.662 180.549 67.662C180.362 67.662 180.192 67.69 180.039 67.747C179.886 67.804 179.747 67.879 179.624 67.973C179.501 68.066 179.395 68.173 179.309 68.292C179.223 68.412 179.156 68.539 179.109 68.673C179.049 68.839 179.012 68.999 178.999 69.152C178.986 69.305 178.979 69.472 178.979 69.652V72.442H178.379V72.443Z" fill="#303030"></path>
                            <path d="M186.319 69.423C186.432 69.409 186.567 69.389 186.724 69.362C186.881 69.335 187.009 69.299 187.109 69.252C187.209 69.206 187.271 69.127 187.294 69.018C187.317 68.908 187.329 68.806 187.329 68.712C187.329 68.406 187.231 68.154 187.034 67.957C186.837 67.761 186.506 67.662 186.039 67.662C185.832 67.662 185.643 67.681 185.469 67.718C185.296 67.754 185.144 67.818 185.014 67.907C184.884 67.996 184.777 68.117 184.694 68.267C184.611 68.416 184.555 68.605 184.529 68.831H183.919C183.939 68.524 184.009 68.263 184.129 68.047C184.249 67.83 184.404 67.653 184.594 67.517C184.784 67.381 185.004 67.281 185.254 67.217C185.504 67.153 185.769 67.121 186.049 67.121C186.309 67.121 186.554 67.149 186.784 67.206C187.014 67.263 187.214 67.353 187.384 67.477C187.554 67.601 187.687 67.765 187.784 67.972C187.881 68.178 187.929 68.432 187.929 68.732V71.552C187.929 71.785 187.971 71.934 188.054 71.996C188.137 72.059 188.305 72.045 188.559 71.951V72.422C188.513 72.435 188.444 72.455 188.354 72.482C188.264 72.508 188.176 72.522 188.089 72.522C187.995 72.522 187.905 72.512 187.819 72.492C187.719 72.478 187.639 72.447 187.579 72.397C187.519 72.347 187.471 72.287 187.434 72.217C187.397 72.147 187.372 72.071 187.359 71.987C187.345 71.904 187.339 71.815 187.339 71.722C187.086 72.001 186.796 72.215 186.469 72.362C186.142 72.509 185.789 72.582 185.409 72.582C185.182 72.582 184.964 72.553 184.754 72.492C184.544 72.432 184.359 72.339 184.199 72.212C184.039 72.086 183.912 71.931 183.819 71.747C183.725 71.564 183.679 71.346 183.679 71.093C183.679 70.212 184.283 69.693 185.489 69.532L186.319 69.423ZM187.329 69.723C187.076 69.829 186.819 69.9 186.559 69.933C186.299 69.966 186.039 69.993 185.779 70.013C185.319 70.046 184.961 70.15 184.704 70.323C184.448 70.497 184.319 70.76 184.319 71.113C184.319 71.273 184.35 71.412 184.414 71.528C184.477 71.645 184.561 71.742 184.664 71.818C184.768 71.895 184.888 71.952 185.024 71.988C185.16 72.025 185.299 72.043 185.439 72.043C185.679 72.043 185.912 72.014 186.139 71.953C186.366 71.893 186.567 71.802 186.744 71.679C186.921 71.555 187.062 71.399 187.169 71.208C187.275 71.019 187.329 70.793 187.329 70.533V69.723Z" fill="#303030"></path>
                            <path d="M188.979 67.763V67.263H189.749V66.443C189.749 66.03 189.832 65.703 189.999 65.463C190.166 65.224 190.449 65.104 190.849 65.104C190.942 65.104 191.03 65.107 191.11 65.114C191.19 65.121 191.27 65.131 191.349 65.144V65.694C191.215 65.661 191.096 65.644 190.989 65.644C190.837 65.644 190.716 65.672 190.63 65.729C190.543 65.786 190.48 65.861 190.441 65.954C190.4 66.048 190.376 66.152 190.365 66.269C190.355 66.385 190.35 66.503 190.35 66.623V67.264H191.35V67.764H190.35V72.444H189.75V67.764H188.979V67.763Z" fill="#303030"></path>
                            <path d="M194.099 72.462C194.026 72.476 193.929 72.499 193.809 72.532C193.689 72.565 193.555 72.582 193.409 72.582C193.109 72.582 192.882 72.508 192.724 72.357C192.566 72.206 192.489 71.939 192.489 71.552V67.762H191.76V67.262H192.489V65.822H193.089V67.262H194.06V67.762H193.089V71.312C193.089 71.439 193.093 71.548 193.1 71.642C193.107 71.735 193.126 71.812 193.16 71.871C193.193 71.932 193.246 71.975 193.315 72.001C193.385 72.028 193.484 72.041 193.61 72.041C193.69 72.041 193.771 72.035 193.855 72.021C193.939 72.007 194.02 71.991 194.1 71.971V72.462H194.099Z" fill="#303030"></path>
                            <path d="M93.379 79.763V79.263H94.149V78.443C94.149 78.03 94.232 77.703 94.399 77.463C94.566 77.224 94.849 77.104 95.249 77.104C95.342 77.104 95.429 77.107 95.509 77.114C95.589 77.121 95.669 77.131 95.749 77.144V77.694C95.616 77.661 95.496 77.644 95.389 77.644C95.236 77.644 95.116 77.672 95.029 77.729C94.942 77.786 94.879 77.861 94.839 77.954C94.799 78.048 94.774 78.152 94.764 78.269C94.754 78.385 94.749 78.503 94.749 78.623V79.264H95.749V79.764H94.749V84.444H94.149V79.764H93.379V79.763Z" fill="#303030"></path>
                            <path d="M100.189 79.263H100.789V84.443H100.189V83.723C100.109 83.816 100.019 83.912 99.919 84.013C99.819 84.113 99.704 84.204 99.574 84.287C99.444 84.371 99.292 84.44 99.119 84.497C98.945 84.554 98.745 84.582 98.519 84.582C98.172 84.582 97.882 84.534 97.649 84.437C97.416 84.34 97.227 84.206 97.084 84.032C96.94 83.859 96.837 83.657 96.774 83.428C96.711 83.198 96.679 82.947 96.679 82.673V79.263H97.279V82.662C97.279 83.109 97.383 83.451 97.589 83.687C97.795 83.923 98.136 84.041 98.609 84.041C98.856 84.041 99.077 83.993 99.274 83.896C99.471 83.799 99.636 83.665 99.769 83.491C99.902 83.318 100.005 83.111 100.079 82.871C100.152 82.632 100.189 82.368 100.189 82.081V79.263V79.263ZM97.679 77.583H98.329V78.604H97.679V77.583ZM99.269 77.583H99.919V78.604H99.269V77.583Z" fill="#303030"></path>
                            <path d="M102.869 84.443H102.269V79.263H102.869V80.233H102.889C103.056 79.82 103.27 79.532 103.534 79.368C103.797 79.205 104.145 79.123 104.579 79.123V79.773C104.239 79.766 103.959 79.82 103.739 79.933C103.519 80.046 103.344 80.2 103.214 80.393C103.084 80.586 102.994 80.815 102.944 81.078C102.894 81.342 102.869 81.617 102.869 81.903V84.443V84.443Z" fill="#303030"></path>
                            <path d="M108.719 82.292C108.746 82.612 108.818 82.884 108.934 83.107C109.05 83.331 109.201 83.512 109.384 83.652C109.568 83.792 109.779 83.894 110.019 83.957C110.259 84.02 110.516 84.053 110.789 84.053C111.109 84.053 111.385 84.013 111.619 83.933C111.852 83.853 112.042 83.745 112.189 83.608C112.335 83.471 112.444 83.313 112.514 83.133C112.584 82.952 112.619 82.763 112.619 82.563C112.619 82.283 112.556 82.056 112.429 81.883C112.303 81.709 112.137 81.568 111.934 81.457C111.73 81.348 111.497 81.259 111.234 81.192C110.971 81.125 110.701 81.06 110.424 80.997C110.147 80.935 109.877 80.859 109.614 80.772C109.351 80.685 109.117 80.569 108.914 80.422C108.71 80.275 108.545 80.086 108.419 79.857C108.292 79.627 108.229 79.336 108.229 78.982C108.229 78.735 108.28 78.496 108.384 78.262C108.488 78.028 108.641 77.822 108.844 77.642C109.048 77.461 109.302 77.319 109.609 77.211C109.916 77.105 110.269 77.052 110.669 77.052C111.076 77.052 111.431 77.109 111.734 77.222C112.037 77.335 112.289 77.491 112.489 77.687C112.689 77.883 112.839 78.112 112.939 78.372C113.039 78.633 113.089 78.909 113.089 79.202H112.439C112.439 78.929 112.391 78.692 112.294 78.492C112.197 78.292 112.065 78.129 111.899 78.002C111.732 77.876 111.542 77.782 111.329 77.723C111.115 77.662 110.895 77.633 110.669 77.633C110.322 77.633 110.03 77.681 109.794 77.778C109.557 77.875 109.369 78 109.229 78.153C109.089 78.306 108.992 78.476 108.939 78.663C108.885 78.85 108.876 79.037 108.909 79.224C108.949 79.457 109.042 79.644 109.189 79.784C109.335 79.925 109.516 80.039 109.729 80.129C109.942 80.22 110.177 80.293 110.434 80.35C110.69 80.407 110.952 80.466 111.219 80.53C111.486 80.594 111.744 80.669 111.994 80.755C112.244 80.842 112.465 80.959 112.659 81.106C112.853 81.253 113.008 81.441 113.124 81.67C113.24 81.9 113.299 82.189 113.299 82.535C113.299 83.202 113.069 83.719 112.609 84.085C112.149 84.452 111.502 84.636 110.669 84.636C110.295 84.636 109.949 84.587 109.629 84.49C109.309 84.393 109.032 84.247 108.799 84.051C108.566 83.854 108.384 83.611 108.254 83.321C108.124 83.031 108.059 82.689 108.059 82.296H108.719V82.292Z" fill="#303030"></path>
                            <path d="M115.129 86.483H114.529V79.263H115.129V80.173H115.149C115.235 80.006 115.347 79.856 115.484 79.723C115.62 79.589 115.771 79.48 115.934 79.393C116.098 79.306 116.266 79.24 116.439 79.193C116.612 79.146 116.782 79.123 116.949 79.123C117.369 79.123 117.725 79.193 118.019 79.333C118.312 79.474 118.554 79.665 118.744 79.908C118.934 80.151 119.073 80.44 119.159 80.773C119.245 81.106 119.289 81.462 119.289 81.843C119.289 82.202 119.243 82.549 119.149 82.883C119.055 83.216 118.914 83.508 118.724 83.758C118.534 84.008 118.294 84.207 118.004 84.358C117.714 84.509 117.372 84.583 116.979 84.583C116.612 84.583 116.26 84.502 115.924 84.338C115.587 84.175 115.322 83.934 115.129 83.613V86.483V86.483ZM115.129 81.873C115.129 82.167 115.169 82.445 115.249 82.708C115.329 82.972 115.444 83.202 115.594 83.398C115.744 83.594 115.927 83.752 116.144 83.868C116.361 83.985 116.606 84.043 116.879 84.043C117.186 84.043 117.454 83.981 117.684 83.858C117.914 83.735 118.102 83.566 118.249 83.353C118.396 83.139 118.502 82.891 118.569 82.608C118.635 82.325 118.662 82.02 118.649 81.693C118.649 81.367 118.604 81.078 118.514 80.828C118.424 80.578 118.299 80.367 118.139 80.193C117.979 80.02 117.792 79.888 117.579 79.798C117.366 79.707 117.132 79.662 116.879 79.662C116.599 79.662 116.349 79.719 116.129 79.832C115.909 79.946 115.725 80.101 115.579 80.298C115.433 80.494 115.321 80.728 115.244 80.997C115.167 81.268 115.129 81.56 115.129 81.873Z" fill="#303030"></path>
                            <path d="M121.199 84.443H120.599V79.263H121.199V80.233H121.219C121.386 79.82 121.6 79.532 121.864 79.368C122.127 79.205 122.475 79.123 122.909 79.123V79.773C122.569 79.766 122.289 79.82 122.069 79.933C121.849 80.046 121.674 80.2 121.544 80.393C121.414 80.586 121.324 80.815 121.274 81.078C121.224 81.342 121.199 81.617 121.199 81.903V84.443V84.443Z" fill="#303030"></path>
                            <path d="M126.279 81.423C126.392 81.409 126.527 81.389 126.684 81.362C126.841 81.335 126.969 81.299 127.069 81.252C127.169 81.206 127.231 81.127 127.254 81.018C127.277 80.908 127.289 80.806 127.289 80.712C127.289 80.406 127.191 80.154 126.994 79.957C126.797 79.761 126.466 79.662 125.999 79.662C125.792 79.662 125.603 79.681 125.429 79.718C125.256 79.754 125.104 79.818 124.974 79.907C124.844 79.996 124.737 80.117 124.654 80.267C124.571 80.416 124.515 80.605 124.489 80.831H123.879C123.899 80.524 123.969 80.263 124.089 80.047C124.209 79.83 124.364 79.653 124.554 79.517C124.744 79.381 124.964 79.281 125.214 79.217C125.464 79.153 125.729 79.121 126.009 79.121C126.269 79.121 126.514 79.149 126.744 79.206C126.974 79.263 127.174 79.353 127.344 79.477C127.514 79.601 127.647 79.765 127.744 79.972C127.841 80.178 127.889 80.432 127.889 80.732V83.552C127.889 83.785 127.931 83.934 128.014 83.996C128.097 84.059 128.265 84.045 128.519 83.951V84.422C128.473 84.435 128.404 84.455 128.314 84.482C128.224 84.508 128.136 84.522 128.049 84.522C127.955 84.522 127.865 84.512 127.779 84.492C127.679 84.478 127.599 84.447 127.539 84.397C127.479 84.347 127.431 84.287 127.394 84.217C127.357 84.147 127.332 84.071 127.319 83.987C127.305 83.904 127.299 83.815 127.299 83.722C127.046 84.001 126.756 84.215 126.429 84.362C126.102 84.509 125.749 84.582 125.369 84.582C125.142 84.582 124.924 84.553 124.714 84.492C124.504 84.432 124.319 84.339 124.159 84.212C123.999 84.086 123.872 83.931 123.779 83.747C123.685 83.564 123.639 83.346 123.639 83.093C123.639 82.212 124.243 81.693 125.449 81.532L126.279 81.423ZM127.289 81.723C127.036 81.829 126.779 81.9 126.519 81.933C126.259 81.966 125.999 81.993 125.739 82.013C125.279 82.046 124.921 82.15 124.664 82.323C124.408 82.497 124.279 82.76 124.279 83.113C124.279 83.273 124.31 83.412 124.374 83.528C124.437 83.645 124.521 83.742 124.624 83.818C124.728 83.895 124.848 83.952 124.984 83.988C125.12 84.025 125.259 84.043 125.399 84.043C125.639 84.043 125.872 84.014 126.099 83.953C126.326 83.893 126.527 83.802 126.704 83.679C126.881 83.555 127.022 83.399 127.129 83.208C127.235 83.019 127.289 82.793 127.289 82.533V81.723Z" fill="#303030"></path>
                            <path d="M133.129 80.893C133.022 80.506 132.839 80.205 132.579 79.988C132.319 79.771 131.989 79.663 131.589 79.663C131.282 79.663 131.019 79.726 130.799 79.853C130.579 79.98 130.399 80.148 130.259 80.358C130.119 80.568 130.015 80.804 129.949 81.068C129.882 81.332 129.849 81.596 129.849 81.863C129.849 82.136 129.881 82.403 129.944 82.663C130.007 82.924 130.109 83.157 130.249 83.363C130.389 83.57 130.569 83.735 130.789 83.858C131.009 83.981 131.276 84.043 131.589 84.043C132.035 84.043 132.394 83.92 132.664 83.674C132.934 83.427 133.106 83.087 133.179 82.653H133.819C133.765 82.94 133.68 83.202 133.564 83.438C133.447 83.674 133.297 83.877 133.114 84.048C132.93 84.218 132.712 84.349 132.459 84.443C132.206 84.537 131.916 84.583 131.589 84.583C131.175 84.583 130.819 84.514 130.519 84.373C130.219 84.233 129.973 84.042 129.779 83.799C129.586 83.555 129.442 83.267 129.349 82.934C129.256 82.6 129.209 82.244 129.209 81.864C129.209 81.504 129.26 81.159 129.364 80.829C129.468 80.499 129.619 80.208 129.819 79.954C130.019 79.701 130.267 79.499 130.564 79.35C130.86 79.2 131.202 79.124 131.589 79.124C132.189 79.124 132.674 79.268 133.044 79.555C133.414 79.841 133.646 80.288 133.739 80.895H133.129V80.893Z" fill="#303030"></path>
                            <path d="M135.019 84.443V77.243H135.619V79.983C135.859 79.73 136.107 79.523 136.364 79.363C136.621 79.203 136.929 79.123 137.289 79.123C137.609 79.123 137.905 79.179 138.179 79.288C138.452 79.398 138.682 79.59 138.869 79.863C138.996 80.05 139.071 80.242 139.094 80.438C139.117 80.634 139.129 80.839 139.129 81.053V84.443H138.529V81.063C138.529 80.596 138.425 80.247 138.219 80.013C138.013 79.779 137.669 79.662 137.189 79.662C137.002 79.662 136.832 79.69 136.679 79.747C136.526 79.804 136.387 79.879 136.264 79.973C136.141 80.066 136.035 80.173 135.949 80.292C135.863 80.412 135.796 80.539 135.749 80.673C135.689 80.839 135.652 80.999 135.639 81.152C135.626 81.305 135.619 81.472 135.619 81.652V84.442H135.019V84.443Z" fill="#303030"></path>
                            <path d="M144.959 83.643L146.319 79.263H146.929L145.249 84.443H144.609L143.479 80.093H143.459L142.309 84.443H141.589L140.009 79.263H140.609L141.949 83.683L143.149 79.263H143.819L144.959 83.643Z" fill="#303030"></path>
                            <path d="M147.858 78.133V77.242H148.518V78.133H147.858ZM147.889 84.443V79.263H148.489V84.443H147.889V84.443Z" fill="#303030"></path>
                            <path d="M150.368 82.823C150.461 83.27 150.63 83.585 150.873 83.768C151.116 83.952 151.464 84.042 151.918 84.042C152.138 84.042 152.328 84.016 152.488 83.962C152.648 83.909 152.78 83.837 152.883 83.747C152.986 83.657 153.065 83.556 153.118 83.442C153.171 83.328 153.198 83.209 153.198 83.082C153.198 82.829 153.116 82.641 152.953 82.518C152.79 82.395 152.585 82.298 152.338 82.228C152.091 82.158 151.824 82.098 151.538 82.048C151.251 81.997 150.984 81.923 150.738 81.822C150.491 81.722 150.286 81.579 150.123 81.392C149.959 81.205 149.878 80.942 149.878 80.602C149.878 80.168 150.036 79.814 150.353 79.537C150.669 79.261 151.118 79.122 151.698 79.122C152.258 79.122 152.713 79.247 153.063 79.497C153.413 79.747 153.625 80.166 153.698 80.752H153.088C153.034 80.353 152.883 80.071 152.633 79.907C152.383 79.744 152.068 79.662 151.688 79.662C151.308 79.662 151.018 79.744 150.818 79.907C150.618 80.071 150.518 80.286 150.518 80.553C150.518 80.786 150.6 80.964 150.763 81.087C150.927 81.211 151.132 81.311 151.378 81.388C151.625 81.464 151.891 81.533 152.178 81.593C152.465 81.653 152.731 81.738 152.978 81.848C153.225 81.957 153.429 82.106 153.593 82.292C153.757 82.48 153.838 82.739 153.838 83.072C153.838 83.319 153.784 83.537 153.678 83.727C153.572 83.916 153.425 84.076 153.238 84.202C153.051 84.329 152.83 84.424 152.573 84.487C152.316 84.55 152.034 84.582 151.728 84.582C151.421 84.582 151.149 84.537 150.913 84.447C150.676 84.357 150.475 84.232 150.308 84.072C150.141 83.912 150.012 83.725 149.918 83.512C149.824 83.298 149.771 83.069 149.758 82.822H150.368V82.823Z" fill="#303030"></path>
                            <path d="M155.368 82.823C155.461 83.27 155.63 83.585 155.873 83.768C156.116 83.952 156.464 84.042 156.918 84.042C157.138 84.042 157.328 84.016 157.488 83.962C157.648 83.909 157.78 83.837 157.883 83.747C157.986 83.657 158.065 83.556 158.118 83.442C158.171 83.328 158.198 83.209 158.198 83.082C158.198 82.829 158.116 82.641 157.953 82.518C157.79 82.395 157.585 82.298 157.338 82.228C157.091 82.158 156.824 82.098 156.538 82.048C156.251 81.997 155.984 81.923 155.738 81.822C155.491 81.722 155.286 81.579 155.123 81.392C154.959 81.205 154.878 80.942 154.878 80.602C154.878 80.168 155.036 79.814 155.353 79.537C155.669 79.261 156.118 79.122 156.698 79.122C157.258 79.122 157.713 79.247 158.063 79.497C158.413 79.747 158.625 80.166 158.698 80.752H158.088C158.034 80.353 157.883 80.071 157.633 79.907C157.383 79.744 157.068 79.662 156.688 79.662C156.308 79.662 156.018 79.744 155.818 79.907C155.618 80.071 155.518 80.286 155.518 80.553C155.518 80.786 155.6 80.964 155.763 81.087C155.927 81.211 156.132 81.311 156.378 81.388C156.625 81.464 156.891 81.533 157.178 81.593C157.465 81.653 157.731 81.738 157.978 81.848C158.225 81.957 158.429 82.106 158.593 82.292C158.757 82.48 158.838 82.739 158.838 83.072C158.838 83.319 158.784 83.537 158.678 83.727C158.572 83.916 158.425 84.076 158.238 84.202C158.051 84.329 157.83 84.424 157.573 84.487C157.316 84.55 157.034 84.582 156.728 84.582C156.421 84.582 156.149 84.537 155.913 84.447C155.676 84.357 155.475 84.232 155.308 84.072C155.141 83.912 155.012 83.725 154.918 83.512C154.824 83.298 154.771 83.069 154.758 82.822H155.368V82.823Z" fill="#303030"></path>
                            <path d="M160.388 81.993C160.388 82.273 160.425 82.538 160.498 82.788C160.571 83.038 160.679 83.255 160.823 83.438C160.967 83.621 161.148 83.768 161.368 83.877C161.588 83.987 161.842 84.042 162.128 84.042C162.521 84.042 162.858 83.939 163.138 83.732C163.418 83.525 163.605 83.232 163.698 82.852H164.368C164.295 83.098 164.198 83.327 164.078 83.537C163.958 83.747 163.808 83.931 163.628 84.087C163.448 84.244 163.234 84.366 162.988 84.452C162.741 84.539 162.455 84.582 162.128 84.582C161.714 84.582 161.358 84.513 161.058 84.372C160.758 84.232 160.512 84.041 160.318 83.798C160.125 83.554 159.981 83.268 159.888 82.938C159.795 82.608 159.748 82.252 159.748 81.873C159.748 81.494 159.803 81.137 159.913 80.804C160.023 80.47 160.179 80.179 160.383 79.929C160.586 79.679 160.835 79.482 161.128 79.338C161.421 79.195 161.754 79.123 162.128 79.123C162.841 79.123 163.401 79.368 163.808 79.858C164.215 80.348 164.415 81.06 164.408 81.993H160.388V81.993ZM163.769 81.493C163.769 81.24 163.734 81.002 163.664 80.778C163.594 80.554 163.49 80.361 163.354 80.198C163.217 80.035 163.045 79.905 162.839 79.808C162.633 79.711 162.396 79.662 162.129 79.662C161.862 79.662 161.627 79.712 161.424 79.812C161.22 79.912 161.047 80.045 160.904 80.211C160.76 80.378 160.646 80.571 160.559 80.791C160.473 81.012 160.416 81.245 160.389 81.491H163.769V81.493Z" fill="#303030"></path>
                            <path d="M166.178 84.443H165.578V79.263H166.178V79.983C166.418 79.73 166.666 79.523 166.923 79.363C167.18 79.203 167.488 79.123 167.848 79.123C168.168 79.123 168.464 79.179 168.738 79.288C169.011 79.398 169.241 79.59 169.428 79.863C169.555 80.05 169.63 80.242 169.653 80.438C169.676 80.634 169.688 80.839 169.688 81.053V84.443H169.088V81.063C169.088 80.596 168.984 80.247 168.778 80.013C168.572 79.779 168.228 79.662 167.748 79.662C167.561 79.662 167.391 79.69 167.238 79.747C167.085 79.804 166.946 79.879 166.823 79.973C166.7 80.066 166.594 80.173 166.508 80.292C166.422 80.412 166.355 80.539 166.308 80.673C166.248 80.839 166.211 80.999 166.198 81.152C166.185 81.305 166.178 81.472 166.178 81.652V84.443Z" fill="#303030"></path>
                            <path d="M171.488 82.823C171.581 83.27 171.75 83.585 171.993 83.768C172.236 83.952 172.584 84.042 173.038 84.042C173.258 84.042 173.448 84.016 173.608 83.962C173.768 83.909 173.9 83.837 174.003 83.747C174.106 83.657 174.185 83.556 174.238 83.442C174.291 83.328 174.318 83.209 174.318 83.082C174.318 82.829 174.236 82.641 174.073 82.518C173.91 82.395 173.705 82.298 173.458 82.228C173.211 82.158 172.944 82.098 172.658 82.048C172.371 81.997 172.104 81.923 171.858 81.822C171.611 81.722 171.406 81.579 171.243 81.392C171.079 81.205 170.998 80.942 170.998 80.602C170.998 80.168 171.156 79.814 171.473 79.537C171.789 79.261 172.238 79.122 172.818 79.122C173.378 79.122 173.833 79.247 174.183 79.497C174.533 79.747 174.745 80.166 174.818 80.752H174.208C174.154 80.353 174.003 80.071 173.753 79.907C173.503 79.744 173.188 79.662 172.808 79.662C172.428 79.662 172.138 79.744 171.938 79.907C171.738 80.071 171.638 80.286 171.638 80.553C171.638 80.786 171.72 80.964 171.883 81.087C172.047 81.211 172.252 81.311 172.498 81.388C172.745 81.464 173.011 81.533 173.298 81.593C173.585 81.653 173.851 81.738 174.098 81.848C174.345 81.957 174.549 82.106 174.713 82.292C174.877 82.48 174.958 82.739 174.958 83.072C174.958 83.319 174.904 83.537 174.798 83.727C174.692 83.916 174.545 84.076 174.358 84.202C174.171 84.329 173.95 84.424 173.693 84.487C173.436 84.55 173.154 84.582 172.848 84.582C172.541 84.582 172.269 84.537 172.033 84.447C171.796 84.357 171.595 84.232 171.428 84.072C171.261 83.912 171.132 83.725 171.038 83.512C170.944 83.298 170.891 83.069 170.878 82.822H171.488V82.823Z" fill="#303030"></path>
                            <path d="M179.809 80.893C179.702 80.506 179.519 80.205 179.259 79.988C178.999 79.771 178.669 79.663 178.269 79.663C177.962 79.663 177.699 79.726 177.479 79.853C177.259 79.98 177.079 80.148 176.939 80.358C176.799 80.568 176.695 80.804 176.629 81.068C176.562 81.332 176.529 81.596 176.529 81.863C176.529 82.136 176.561 82.403 176.624 82.663C176.687 82.924 176.789 83.157 176.929 83.363C177.069 83.57 177.249 83.735 177.469 83.858C177.689 83.981 177.956 84.043 178.269 84.043C178.715 84.043 179.074 83.92 179.344 83.674C179.614 83.427 179.786 83.087 179.859 82.653H180.499C180.445 82.94 180.36 83.202 180.244 83.438C180.127 83.674 179.977 83.877 179.794 84.048C179.61 84.218 179.392 84.349 179.139 84.443C178.886 84.537 178.596 84.583 178.269 84.583C177.855 84.583 177.499 84.514 177.199 84.373C176.899 84.233 176.653 84.042 176.459 83.799C176.266 83.555 176.122 83.267 176.029 82.934C175.936 82.6 175.889 82.244 175.889 81.864C175.889 81.504 175.94 81.159 176.044 80.829C176.148 80.499 176.299 80.208 176.499 79.954C176.699 79.701 176.947 79.499 177.244 79.35C177.54 79.2 177.882 79.124 178.269 79.124C178.869 79.124 179.354 79.268 179.724 79.555C180.094 79.841 180.326 80.288 180.419 80.895H179.809V80.893Z" fill="#303030"></path>
                            <path d="M181.699 84.443V77.243H182.299V79.983C182.539 79.73 182.787 79.523 183.044 79.363C183.301 79.203 183.609 79.123 183.969 79.123C184.289 79.123 184.585 79.179 184.859 79.288C185.132 79.398 185.362 79.59 185.549 79.863C185.676 80.05 185.751 80.242 185.774 80.438C185.797 80.634 185.809 80.839 185.809 81.053V84.443H185.209V81.063C185.209 80.596 185.105 80.247 184.899 80.013C184.693 79.779 184.349 79.662 183.869 79.662C183.682 79.662 183.512 79.69 183.359 79.747C183.206 79.804 183.067 79.879 182.944 79.973C182.821 80.066 182.715 80.173 182.629 80.292C182.543 80.412 182.476 80.539 182.429 80.673C182.369 80.839 182.332 80.999 182.319 81.152C182.306 81.305 182.299 81.472 182.299 81.652V84.442H181.699V84.443Z" fill="#303030"></path>
                            <path d="M189.639 81.423C189.752 81.409 189.887 81.389 190.043 81.362C190.2 81.336 190.328 81.299 190.429 81.252C190.53 81.206 190.59 81.127 190.614 81.018C190.637 80.908 190.649 80.806 190.649 80.712C190.649 80.406 190.551 80.154 190.354 79.957C190.157 79.761 189.826 79.662 189.359 79.662C189.153 79.662 188.963 79.681 188.789 79.718C188.616 79.754 188.464 79.818 188.334 79.907C188.204 79.996 188.097 80.117 188.014 80.267C187.931 80.416 187.875 80.605 187.849 80.831H187.239C187.259 80.524 187.329 80.263 187.449 80.047C187.569 79.83 187.724 79.653 187.914 79.517C188.104 79.381 188.324 79.281 188.574 79.217C188.824 79.153 189.088 79.121 189.369 79.121C189.629 79.121 189.873 79.149 190.103 79.206C190.333 79.263 190.533 79.353 190.703 79.477C190.873 79.601 191.007 79.765 191.103 79.972C191.2 80.178 191.248 80.432 191.248 80.732V83.552C191.248 83.785 191.29 83.934 191.373 83.996C191.457 84.059 191.625 84.045 191.879 83.951V84.422C191.832 84.435 191.764 84.455 191.674 84.482C191.584 84.509 191.495 84.522 191.408 84.522C191.314 84.522 191.224 84.512 191.138 84.492C191.038 84.478 190.958 84.447 190.898 84.397C190.838 84.347 190.79 84.287 190.753 84.217C190.716 84.147 190.691 84.071 190.678 83.987C190.664 83.904 190.657 83.815 190.657 83.722C190.404 84.001 190.114 84.215 189.788 84.362C189.461 84.508 189.107 84.582 188.727 84.582C188.5 84.582 188.282 84.553 188.072 84.492C187.862 84.432 187.677 84.339 187.517 84.212C187.357 84.086 187.23 83.931 187.137 83.747C187.043 83.564 186.997 83.346 186.997 83.093C186.997 82.212 187.601 81.693 188.807 81.532L189.639 81.423ZM190.648 81.723C190.394 81.829 190.138 81.9 189.878 81.933C189.618 81.966 189.357 81.993 189.098 82.013C188.638 82.046 188.28 82.15 188.023 82.323C187.767 82.497 187.638 82.76 187.638 83.113C187.638 83.273 187.669 83.412 187.733 83.528C187.796 83.645 187.88 83.742 187.983 83.818C188.087 83.895 188.207 83.952 188.343 83.988C188.479 84.025 188.618 84.043 188.758 84.043C188.998 84.043 189.232 84.014 189.458 83.953C189.685 83.893 189.886 83.802 190.062 83.679C190.239 83.555 190.38 83.399 190.487 83.208C190.594 83.019 190.647 82.793 190.647 82.533V81.723H190.648Z" fill="#303030"></path>
                            <path d="M192.299 79.763V79.263H193.069V78.443C193.069 78.03 193.153 77.703 193.319 77.463C193.486 77.224 193.769 77.104 194.169 77.104C194.263 77.104 194.35 77.107 194.43 77.114C194.51 77.121 194.59 77.131 194.669 77.144V77.694C194.536 77.661 194.416 77.644 194.31 77.644C194.157 77.644 194.037 77.672 193.951 77.729C193.863 77.786 193.801 77.861 193.761 77.954C193.721 78.048 193.696 78.152 193.686 78.269C193.676 78.385 193.67 78.503 193.67 78.623V79.264H194.67V79.764H193.67V84.444H193.07V79.764H192.299V79.763Z" fill="#303030"></path>
                            <path d="M197.418 84.462C197.346 84.476 197.248 84.499 197.129 84.532C197.008 84.565 196.875 84.582 196.729 84.582C196.428 84.582 196.201 84.508 196.043 84.357C195.887 84.207 195.809 83.939 195.809 83.552V79.762H195.079V79.262H195.809V77.822H196.409V79.262H197.38V79.762H196.409V83.312C196.409 83.439 196.413 83.548 196.419 83.642C196.426 83.735 196.446 83.812 196.48 83.871C196.513 83.932 196.565 83.975 196.634 84.001C196.704 84.028 196.803 84.041 196.929 84.041C197.009 84.041 197.091 84.035 197.175 84.021C197.258 84.007 197.339 83.991 197.419 83.971V84.462H197.418Z" fill="#303030"></path>
                        </svg>
