<?xml version="1.0" encoding="UTF-8" standalone="no"?>
<!DOCTYPE svg PUBLIC "-//W3C//DTD SVG 1.1//EN" "http://www.w3.org/Graphics/SVG/1.1/DTD/svg11.dtd">
<svg width="100%" height="100%" viewBox="0 0 7180 8554" version="1.1" xmlns="http://www.w3.org/2000/svg" xmlns:xlink="http://www.w3.org/1999/xlink" xml:space="preserve" xmlns:serif="http://www.serif.com/" style="fill-rule:evenodd;clip-rule:evenodd;stroke-linejoin:round;stroke-miterlimit:10;">
    <g transform="matrix(1,0,0,1,-17232.8,-23278.2)">
        <g transform="matrix(4.16667,0,0,4.16667,15359.1,17392.7)">
            <g>
                <g>
                    <g transform="matrix(1,0,0,1,2172.21,2990.28)">
                        <path d="M0,-1170.32L0.033,-1170.32C-2.757,-488.261 -268.919,72.267 -827.256,463.875C-847.424,477.957 -874.237,477.941 -894.418,463.875C-1503.58,36.434 -1752.73,-581.139 -1718.9,-1315.27C-1717.94,-1335.54 -1706.57,-1353.88 -1688.85,-1363.76C-1173.65,-1648.25 -548.24,-1648.28 -33.075,-1363.82C-15.288,-1353.91 -3.915,-1335.49 -3.002,-1315.16C-1.011,-1267.84 0.159,-1212.81 0,-1170.32" style="fill:white;stroke:white;stroke-width:1.2px;"/>
                    </g>
                    <g transform="matrix(1,0,0,1,2172.21,2990.28)">
                        <path d="M0,-1170.32L0.033,-1170.32C-2.757,-488.261 -268.919,72.267 -827.256,463.875C-847.424,477.957 -874.237,477.941 -894.418,463.875C-1503.58,36.434 -1752.73,-581.139 -1718.9,-1315.27C-1717.94,-1335.54 -1706.57,-1353.88 -1688.85,-1363.76C-1173.65,-1648.25 -548.24,-1648.28 -33.075,-1363.82C-15.288,-1353.91 -3.915,-1335.49 -3.002,-1315.16C-1.011,-1267.84 0.159,-1212.81 0,-1170.32M-1556.31,-868.527C-1556.31,-863.568 -1558.29,-858.721 -1561.65,-855.097C-1582.03,-832.985 -1595.95,-816.276 -1603.28,-807.303C-1606.83,-802.932 -1608.32,-797.252 -1607.37,-791.704C-1525.23,-307.214 -1272.96,86.268 -875.805,373.165C-868.967,378.093 -859.743,378.076 -852.906,373.165C-329.066,-5.34 -90.451,-536.089 -88.897,-1177.99C-88.573,-1195.97 -89.419,-1237.75 -90.041,-1264.56C-90.252,-1273.37 -96.422,-1280.94 -105.005,-1282.98C-485.482,-1373.88 -798.618,-1319.25 -1038.81,-1219.21C-1050.11,-1214.51 -1062.13,-1212 -1074.37,-1212L-1250.26,-1212C-1271.88,-1212 -1289.42,-1194.46 -1289.42,-1172.84L-1289.42,-1095.75C-1289.42,-1089.19 -1292.78,-1083.05 -1298.22,-1079.4C-1302.59,-1076.48 -1306.91,-1073.54 -1311.19,-1070.59C-1314.49,-1068.32 -1318.32,-1067.13 -1322.32,-1067.13L-1353.85,-1067.13C-1362.87,-1067.13 -1370.16,-1074.44 -1370.16,-1083.45L-1370.16,-1172.84C-1370.16,-1194.46 -1387.7,-1212 -1409.33,-1212L-1517.15,-1212C-1538.79,-1212 -1556.31,-1194.46 -1556.31,-1172.84L-1556.31,-868.527ZM-1142.43,-1171.22C-1180.65,-1151.69 -1216.6,-1131.22 -1250.26,-1110.39L-1250.26,-1172.84L-1142.43,-1172.84L-1142.43,-1171.22ZM-1370.19,-1027.96C-1430.38,-982.313 -1479.46,-938.122 -1517.15,-901.013L-1517.15,-1172.84L-1409.33,-1172.84L-1409.33,-1027.96L-1370.19,-1027.96Z" style="fill:rgb(180,180,180);"/>
                    </g>
                    <g transform="matrix(1,0,0,1,655.059,2197.56)">
                        <path d="M0,-380.12L107.827,-380.12L107.827,-235.249L266.908,-235.249L266.908,-380.12L374.718,-380.12L374.718,0L266.908,0L266.908,-161.151L107.827,-161.151L107.827,0L0,0L0,-380.12Z" style="fill:rgb(233,92,42);fill-rule:nonzero;"/>
                    </g>
                    <g transform="matrix(1,0,0,1,1476.51,2902.83)">
                        <path d="M0,50.96C0.8,50.324 1.547,49.606 2.222,48.855C6.513,43.976 9.039,37.123 13.331,32.081L13.331,32.048C14.918,30.188 16.253,28.164 17.245,25.896C22.013,15.11 37.79,-12.287 24.267,-7.685C20.188,-1.583 16.531,7.816 9.396,10.835C8.127,11.39 6.983,12.141 5.872,12.891C-2.691,18.847 -8.57,16.628 -9.35,26.81C-9.707,31.526 -11.539,36.013 -14.719,39.505C-16.967,41.953 -18.911,44.694 -19.235,48.137C-21.457,63.247 -7.26,56.704 0,50.96" style="fill:rgb(28,161,150);fill-rule:nonzero;"/>
                    </g>
                    <g transform="matrix(1,0,0,1,1245.65,2611.55)">
                        <path d="M0,3.861C2.691,5.362 4.682,6.427 7.26,8.939C8.761,10.421 13.807,9.653 14.508,7.081C24.512,-6.56 -16.776,-4.98 0,3.861" style="fill:rgb(28,161,150);fill-rule:nonzero;"/>
                    </g>
                    <g transform="matrix(1,0,0,1,1212.46,2479.78)">
                        <path d="M0,3.914C-4.245,3.167 -3.022,-2.791 -5.078,-5.714C-6.513,-9.641 -0.668,-8.729 -0.364,-11.784C1.58,-16.465 -6.824,-16.856 -3.888,-20.188C-15.784,-27.283 -15.341,-2.903 -25.147,-4.537C-28.592,-7.036 -29.782,-2.269 -32.394,-1.515C-36.52,-4.49 -41.235,-1.878 -43.179,2.367C-44.812,6.493 -44.892,12.596 -50.274,13.152C-57.534,25.602 -37.955,18.422 -32.394,16.365L-32.394,16.332C-27.481,14.15 -26.681,6.215 -23.322,2.01C-23.077,4.668 -24.314,9.025 -23.481,11.961C-24.347,14.428 -28.751,15.453 -30.417,17.866C-30.86,21.602 -36.91,28.102 -32.083,30.529C-23.401,29.015 -11.816,31.197 -4.245,28.347C-1.554,27.315 -1.713,24.412 -1.032,22.111C0.311,20.101 3.491,18.144 2.691,15.373C-0.476,12.093 0.311,8.047 0,3.914" style="fill:rgb(28,161,150);fill-rule:nonzero;"/>
                    </g>
                    <g transform="matrix(1,0,0,1,1388.95,3028.65)">
                        <path d="M0,-624.458C-10.163,-610.751 -7.293,-625.926 -16.022,-617.363C-21.034,-612.43 -29.485,-612.285 -31.521,-605.223C-33.498,-598.352 -32.877,-596.885 -37.069,-595.43C-41.281,-593.975 -54.757,-602.036 -47.186,-605.712C-43.225,-607.616 -36.242,-602.77 -33.498,-608.403C-33.353,-619.856 -70.653,-618.831 -80.215,-620.021C-94.524,-621.8 -105.864,-611.161 -116.292,-602.644C-132.367,-589.538 -131.124,-595.35 -139.217,-583.924C-142.986,-577.874 -152.402,-558.956 -138.695,-564.034C-134.701,-565.502 -130.932,-574.627 -126.72,-569.582C-113.846,-554.129 -124.406,-532.638 -105.997,-557.964C-102.373,-562.943 -106.618,-566.712 -99.569,-570.772C-92.223,-574.998 -101.785,-580.611 -101.95,-586.113C-102.016,-589.016 -98.624,-588.771 -96.547,-589.016C-84.295,-589.994 -87.284,-607.358 -79.693,-601.969C-76.3,-599.556 -85.293,-591.952 -86.794,-587.825C-90.577,-577.477 -85.683,-573.675 -73.999,-575.685C-68.875,-576.564 -59.756,-583.144 -58.136,-577.352C-56.146,-570.283 -66.474,-574.72 -70.455,-572.63C-75.223,-570.117 -79.626,-567.281 -83.938,-564.345C-88.699,-559.075 -83.515,-548.059 -89.697,-545.467C-102.016,-540.309 -116.927,-537.466 -129.986,-544.276C-136.169,-548.958 -131.368,-555.464 -132.678,-560.966C-135.534,-565.291 -142.517,-557.852 -143.82,-554.75C-145.162,-549.983 -140.784,-542.769 -144.487,-539.72C-152.012,-533.518 -157.739,-538.186 -165.151,-527.124C-181.094,-503.312 -188.109,-511.961 -216.827,-511.36C-219.994,-506.136 -209.176,-502.208 -212.258,-490.98C-218.639,-467.811 -239.917,-475.494 -256.772,-478.661C-268.946,-478.82 -267.445,-426.212 -255.761,-418.885C-244.453,-411.791 -239.408,-422.655 -227.711,-425.319C-221.654,-426.701 -222.553,-431.423 -219.875,-438.564C-216.437,-447.702 -207.689,-453.561 -197.618,-456.45C-194.616,-457.317 -195.958,-460.841 -195.403,-463.188C-193.069,-473.114 -179.983,-459.539 -173.681,-466.045C-160.238,-476.638 -155.16,-467.632 -149.89,-455.426C-144.216,-445.031 -127.718,-441.897 -123.751,-430.636C-121.694,-426.153 -129.411,-418.363 -125.774,-416.994C-117.502,-413.86 -115.545,-429.479 -118.368,-436.904C-116.067,-440.865 -106.473,-428.302 -107.055,-436.236C-108.807,-445.031 -123.672,-445.276 -128.466,-453.237C-132.089,-459.062 -138.827,-464.187 -141.796,-470.257C-143.152,-485.201 -128.485,-482.067 -124.075,-469.927C-120.061,-458.917 -102.618,-453.204 -99.959,-440.951C-98.902,-435.628 -100.138,-427.501 -94.577,-425.088C-87.508,-422.02 -82.159,-397.25 -76.214,-408.398C-71.255,-417.272 -78.304,-425.319 -77.048,-433.849C-73.51,-440.508 -60.946,-450.023 -55.623,-440.429C-52.489,-430.312 -53.957,-418.74 -43.86,-411.923C-39.291,-407.677 -30.443,-398.004 -24.115,-402.798C-23.203,-404.907 -22.403,-407.79 -19.745,-408.2C-14.276,-408.868 -12.054,-402.05 -7.095,-401.773C16.584,-407.843 10.659,-409.965 8.404,-386.776C7.181,-374.08 -0.291,-366.277 -6.328,-363.116C-8.742,-361.84 -11.499,-361.695 -14.197,-362.171C-28.275,-364.584 -43.728,-366.674 -58.136,-369.445C-68.108,-371.389 -74.376,-380.593 -84.93,-377.036C-97.625,-372.744 -88.018,-357.681 -100.436,-354.415C-105.931,-352.98 -106.929,-361.351 -111.379,-363.031C-115.968,-364.763 -123.916,-361.583 -125.887,-367.421C-130.932,-382.352 -159.663,-372.169 -156.224,-393.924C-152.178,-419.619 -175.182,-418.528 -191.991,-419.051C-207.332,-419.54 -222.851,-412.478 -236.849,-406.567C-243.977,-403.565 -247.323,-408.365 -251.747,-412.015C-253.526,-413.49 -256.204,-413.212 -257.963,-411.711C-273.25,-398.817 -284.741,-397.058 -290.632,-379.006C-293.308,-370.767 -298.872,-363.619 -306.035,-358.726C-322.418,-347.531 -338.051,-333.156 -337.366,-303.129C-337.3,-300.425 -337.333,-297.614 -337.74,-294.936C-340.531,-276.402 -345.279,-256.366 -338.002,-237.732C-332.976,-224.137 -325.388,-210.74 -316.185,-198.91C-306.59,-186.574 -292.051,-178.969 -276.438,-178.35C-266.334,-177.958 -256.038,-178.007 -246.444,-176.701C-233.993,-175.624 -213.613,-185.432 -207.656,-169.604C-204.052,-164.088 -197.228,-161.477 -190.801,-162.505C-177.014,-166.225 -167.174,-153.906 -174.27,-141.406C-182.641,-128.924 -171.023,-119.687 -161.263,-113.259C-150.644,-105.328 -156.958,-108.184 -146.808,-98.279C-132.532,-83.283 -136.936,-66.149 -127.355,-45.818C-120.392,-31.017 -94.412,-10.033 -76.704,-1.58C-70.719,1.275 -63.77,1.031 -57.859,-2.005C-37.578,-12.383 12.16,-42.179 53.217,-122.494C56.066,-132.693 67.605,-138.551 73.431,-146.954C80.658,-161.396 95.609,-168.852 106.314,-179.834C114.685,-193.753 126.495,-207.199 133.788,-221.671C136.645,-230.908 133.709,-241.092 123.314,-232.099C106.704,-222.782 87.237,-203.185 77.953,-231.417C73.431,-239.557 62.467,-239.948 56.708,-246.249C49.725,-253.886 42.67,-262.35 37.829,-271.396L37.829,-271.509C35.251,-282.128 28.347,-290.453 23.322,-300.18C19.745,-307.063 17.496,-314.291 12.173,-319.891C8.828,-325.261 -2.023,-333.969 3.61,-337.593C4.199,-337.983 7.38,-340.826 9.872,-339.914C17.609,-333.811 22.409,-322.497 29.114,-315.124C55.551,-296.133 33.227,-289.23 59.644,-271.945C82.126,-251.797 76.221,-217.594 118.521,-251.956C125.027,-256.446 156.667,-289.164 158.969,-293.68C165.462,-302.038 173.608,-317.134 162.023,-324.652C154.499,-329.532 145.77,-333.4 147.985,-341.54C148.818,-347.564 139.535,-347.677 141.558,-341.051C138.946,-319.137 84.658,-365.53 103.815,-367.699C110.308,-366.277 112.173,-358.038 116.768,-354.024C125.338,-345.785 134.82,-351.889 145.605,-353.714C153.745,-355.089 145.916,-344.232 161.303,-345.098C173.119,-344.073 190.688,-364.928 197.545,-349.978C206.274,-341.104 214.876,-339.325 218.136,-337.804C223.552,-334.366 219.67,-326.987 222.692,-322.14C227.407,-310.766 240.691,-285.13 240.691,-274.021C228.385,-174.662 170.93,-85.714 78.357,-31.474C56.099,-18.436 32.083,-8.417 7.148,-1.858C-140.507,37.043 -287.727,-23.952 -364.599,-155.913C-377.36,-177.844 -387.167,-201.488 -393.645,-226.015C-432.481,-372.923 -372.416,-519.42 -241.941,-596.699C-220.451,-609.428 -197.281,-619.32 -173.225,-626.005C-112.801,-642.814 -52.443,-642.603 3.187,-627.738C2.301,-626.468 0.886,-625.635 0,-624.458M-40.871,-447.167C-44.806,-450.579 -49.362,-456.285 -45.949,-463.354L-45.917,-463.387C-42.425,-470.568 -46.161,-475.051 -38.735,-479.719C-35.376,-482.378 -34.298,-493.804 -27.918,-490.035C-27.441,-485.955 -24.737,-485.565 -21.49,-484.798C-23.514,-479.085 -18.045,-476.552 -16.412,-471.48C-14.276,-470.37 -11.618,-474.562 -9.151,-474.694C10.269,-478.186 -32.077,-482.265 -6.295,-489.202C1.468,-490.557 4.721,-499.709 5.826,-496.627C0.086,-464.108 3.333,-480.129 31.138,-458.507C46.67,-446.413 17.166,-442.141 7.849,-446.168C-22.515,-461.807 -13.311,-446.532 -37.347,-445.5C-38.623,-436.818 -36.844,-432.659 -45.804,-436.104C-50.631,-434.795 -50.598,-440.786 -48.297,-442.287C-45.718,-443.841 -40.17,-442.452 -40.871,-447.167M265.818,-314.522C265.818,-335.126 264.006,-355.334 260.548,-374.959C260.561,-374.992 260.581,-375.025 260.594,-375.045C231.976,-537.776 89.928,-661.501 -81.048,-661.501C-148.508,-661.501 -211.458,-642.226 -264.72,-608.906C-264.72,-608.893 -264.701,-608.86 -264.687,-608.826C-304.501,-583.944 -338.899,-551.206 -365.709,-512.781C-365.774,-512.696 -365.823,-512.616 -365.872,-512.537C-367.814,-509.746 -369.723,-506.936 -371.583,-504.08C-371.714,-503.888 -371.845,-503.689 -371.975,-503.498C-375.761,-497.685 -379.367,-491.761 -382.81,-485.71C-383.137,-485.155 -383.447,-484.586 -383.756,-484.011C-385.062,-481.697 -386.334,-479.363 -387.575,-477.028C-388.032,-476.162 -388.489,-475.316 -388.946,-474.449C-390.104,-472.214 -391.23,-469.96 -392.34,-467.711C-392.731,-466.925 -393.123,-466.157 -393.515,-465.377C-394.869,-462.554 -396.207,-459.697 -397.496,-456.827C-398.034,-455.637 -398.54,-454.447 -399.062,-453.25C-399.83,-451.504 -400.58,-449.759 -401.314,-448C-401.951,-446.499 -402.555,-445.011 -403.158,-443.51C-403.745,-442.042 -404.317,-440.574 -404.872,-439.119C-405.508,-437.473 -406.144,-435.826 -406.748,-434.18C-407.172,-433.036 -407.564,-431.892 -407.972,-430.768C-409.261,-427.098 -410.517,-423.422 -411.692,-419.705C-411.953,-418.872 -412.23,-418.039 -412.492,-417.206C-413.144,-415.07 -413.781,-412.934 -414.401,-410.779C-414.646,-409.946 -414.874,-409.112 -415.119,-408.279C-415.755,-405.998 -416.376,-403.71 -416.979,-401.409C-417.044,-401.105 -417.126,-400.794 -417.208,-400.483C-419.247,-392.502 -420.993,-384.408 -422.478,-376.216C-422.495,-376.057 -422.527,-375.905 -422.56,-375.746C-426.117,-355.836 -428.01,-335.344 -428.01,-314.423C-428.01,-122.853 -272.682,32.474 -81.127,32.474C-31.997,32.426 14.752,22.162 57.111,3.723C179.923,-49.669 265.818,-172.051 265.818,-314.522" style="fill:rgb(28,161,150);fill-rule:nonzero;"/>
                    </g>
                    <g transform="matrix(0.274656,0,0,0.250622,104.112,1349.55)">
                        <path d="M2002.56,3383.66L2002.56,1867.95L2413.53,1867.95L2413.53,2443.71L2958.77,2443.71L2958.77,1867.95L3369.74,1867.95L3369.74,3383.66L2958.77,3383.66L2958.77,2775.34L2413.53,2775.34L2413.53,3383.66L2002.56,3383.66Z" style="fill:rgb(28,161,150);fill-rule:nonzero;"/>
                    </g>
                    <g transform="matrix(0.258685,0,0,0.250622,176.22,1349.55)">
                        <path d="M4593.22,2398.86C4592.44,2406 4591.69,2413.15 4590.95,2420.32C4578.41,2543.07 4558.91,2658.35 4532.46,2766.18L4380.89,3383.66L3916.01,3383.66L3514.19,1867.95L3973.99,1867.95L4095.04,2455.92C4110.64,2529.84 4124.54,2610.71 4136.75,2698.54C4148.21,2780.95 4159.51,2863.22 4170.67,2945.34C4182.82,2863.22 4195.42,2780.95 4208.47,2698.54C4222.37,2610.71 4237.8,2529.84 4254.75,2455.92L4389.03,1867.95L4800,1867.95L4934.28,2455.92C4951.23,2529.84 4966.66,2610.71 4980.56,2698.54C4993.5,2780.28 5006,2861.87 5018.06,2943.32C5028.86,2861.87 5040.09,2780.28 5051.77,2698.54C5064.32,2610.71 5078.05,2529.84 5092.97,2455.92L5215.04,1867.95L5674.84,1867.95L5273.02,3383.66L4808.14,3383.66L4657.59,2766.18C4631.81,2659.71 4611.3,2544.76 4596.04,2421.33C4595.11,2413.83 4594.17,2406.33 4593.22,2398.86Z" style="fill:rgb(28,161,150);"/>
                    </g>
                    <g transform="matrix(0.2747,0,0,0.250622,97.7499,1349.55)">
                        <path d="M5819.29,3383.66L5819.29,1867.95L6230.26,1867.95L6230.26,3052.03L6842.64,3052.03L6842.64,3383.66L5819.29,3383.66Z" style="fill:rgb(28,161,150);fill-rule:nonzero;"/>
                    </g>
                </g>
            </g>
        </g>
    </g>
</svg>