<?xml version="1.0" encoding="UTF-8"?><svg xmlns="http://www.w3.org/2000/svg" xmlns:xlink="http://www.w3.org/1999/xlink" viewBox="170 140 450 300"><defs><style>.cls-1{fill:url(#linear-gradient);}.cls-1,.cls-2,.cls-3{stroke-width:0px;}.cls-1,.cls-3{fill-rule:evenodd;}.cls-2{fill:#000;}.cls-3{fill:#fff;}</style><linearGradient id="linear-gradient" x1="400" y1="251" x2="400" y2="455" gradientUnits="userSpaceOnUse"><stop offset="0" stop-color="#00b8f1"/><stop offset=".02" stop-color="#00b5ef"/><stop offset=".31" stop-color="#0d90d8"/><stop offset=".58" stop-color="#1675c8"/><stop offset=".82" stop-color="#1c64be"/><stop offset="1" stop-color="#1e5fbb"/></linearGradient></defs><g id="logo"><polyline class="cls-1" points="193.81 455 402.22 455 606.19 251 193.81 251 193.81 455"/><path class="cls-3" d="M438.54,289.36l-40.59-.02v96.52l-35.46-96.52h-35.16l-30.28,80.72c-3.22-20.35-24.28-27.38-40.84-32.65-10.94-3.51-22.54-8.68-22.43-14.39.09-4.69,6.22-9.04,18.38-8.38,8.17.43,15.37,1.09,29.71,8.01l14.1-24.56c-13.09-6.66-31.17-10.87-45.98-10.88h-.09c-17.28,0-31.68,5.6-40.6,14.82-6.22,6.44-9.57,14.63-9.71,23.68-.23,12.45,4.34,21.29,13.94,28.34,8.1,5.94,18.47,9.79,27.6,12.63,11.27,3.49,20.47,6.53,20.36,13-.08,2.35-.98,4.55-2.67,6.34-2.81,2.9-7.12,3.99-13.08,4.1-11.5.24-20.03-1.56-33.61-9.58l-12.54,24.9c13.55,7.71,29.59,12.22,45.95,12.22l2.11-.02c14.25-.26,25.74-4.32,34.93-11.71.53-.42,1-.84,1.49-1.28l-4.07,10.87h36.88l6.19-18.82c6.48,2.21,13.85,3.44,21.68,3.44s14.79-1.17,21.16-3.25l5.97,18.64h60.14v-38.97h13.11c31.71,0,50.46-16.15,50.46-43.2,0-30.14-18.22-43.97-57.01-43.97ZM344.72,371.95c-4.74,0-9.18-.83-13.01-2.28l12.87-40.59h.24l12.64,40.71c-3.8,1.35-8.14,2.16-12.75,2.16ZM440.92,348.62h-8.94v-32.71h8.94c11.93,0,21.44,3.96,21.44,16.14s-9.51,16.57-21.44,16.57"/></g><g id="text"><path class="cls-2" d="M193.81,195.79l5.26-5.18c2.66,3.39,6.37,5.66,12.49,5.66,5.01,0,8.81-1.63,8.81-5.63,0-4.21-4.39-5.42-10.33-6.84-6.83-1.6-14.25-3.81-14.25-12.71,0-8.39,7.02-12.05,16.04-12.05,7.11,0,12.24,2.3,15.61,6.15l-5.1,5c-2.69-3-6.03-4.63-10.79-4.63-5.38,0-7.7,2.18-7.7,5.09,0,3.84,3.99,4.87,9.49,6.24,7.33,1.7,15.12,3.72,15.12,13.17,0,7.66-5.84,12.9-17.06,12.9-8.22,0-14.04-2.69-17.59-7.14Z"/><path class="cls-2" d="M234.55,169.21h7.57v6.81h.09c1.64-3.81,4.82-7.45,11.96-7.45,8.59,0,14.34,6.54,14.34,17.2s-5.29,17.17-14.07,17.17c-6.55,0-10.33-3.42-11.93-7.17h-.15v19.47h-7.82v-46.02ZM251.31,196.73c5.26,0,9.03-3.84,9.03-10.96s-3.77-10.96-9.03-10.96-9,3.81-9,10.96,3.74,10.96,9,10.96Z"/><path class="cls-2" d="M272.75,185.77c0-10.44,7.11-17.2,17.22-17.2s17.22,6.75,17.22,17.2-7.11,17.17-17.22,17.17-17.22-6.72-17.22-17.17ZM289.97,196.73c5.26,0,9.03-3.84,9.03-10.96s-3.77-10.96-9.03-10.96-9.03,3.81-9.03,10.96,3.77,10.96,9.03,10.96Z"/><path class="cls-2" d="M313.22,169.21h7.57v6.96h.12c1.55-3.78,4.64-7.6,11.1-7.6,7.26,0,10.51,4.84,10.51,11.9v21.86h-7.82v-20.01c0-4.45-1.58-7.14-6.12-7.14s-7.54,3.03-7.54,8.6v18.56h-7.82v-33.12Z"/><path class="cls-2" d="M347.08,197.82l4.7-4.6c2.69,2.91,5.6,3.81,9.15,3.81s6.12-.97,6.12-3.69c0-3-2.88-3.81-7.73-5.06-5.22-1.33-10.67-3.48-10.67-10.02,0-6.15,4.82-9.69,12.83-9.69,5.22,0,9.52,1.57,12.55,4.51l-4.58,4.48c-2.29-2.3-5.1-3.15-7.85-3.15-3.25,0-5.38,1.09-5.38,3.51s2.75,3.24,7.33,4.42c5.35,1.33,11.1,3.15,11.1,10.44,0,6.42-5.29,10.14-13.6,10.14-5.9,0-10.7-1.63-13.97-5.12Z"/><path class="cls-2" d="M378.34,185.77c0-10.44,7.11-17.2,17.22-17.2s17.22,6.75,17.22,17.2-7.11,17.17-17.22,17.17-17.22-6.72-17.22-17.17ZM395.56,196.73c5.26,0,9.03-3.84,9.03-10.96s-3.77-10.96-9.03-10.96-9.03,3.81-9.03,10.96,3.77,10.96,9.03,10.96Z"/><path class="cls-2" d="M418.8,169.21h7.57v7.11h.12c1.14-5.3,3.68-7.75,7.91-7.75,1.24,0,2.29.21,2.91.42v7.17c-.83-.21-2.07-.39-3.25-.39-5.56,0-7.45,3.75-7.45,9.9v16.65h-7.82v-33.12Z"/><path class="cls-2" d="M439.92,185.77c0-11.53,7.76-17.2,16.97-17.2,11.31,0,15.33,8.11,15.33,16.17,0,.97-.06,1.97-.12,2.91h-23.93c.56,6.3,3.9,9.29,9.77,9.29,3.8,0,6.34-1.09,8.62-3.69l4.54,4.45c-3.15,3.48-7.02,5.24-13.54,5.24-10.85,0-17.65-6.08-17.65-17.17ZM464.43,182.89c-.43-5.84-3.34-8.42-7.73-8.42s-7.64,2.57-8.41,8.42h16.14Z"/><path class="cls-2" d="M476.47,185.77c0-10.32,5.29-17.2,14.04-17.2,6.58,0,10.39,3.45,11.96,7.21h.15v-18.59h7.82v45.14h-7.54v-6.81h-.15c-1.64,3.81-4.79,7.42-11.93,7.42-8.59,0-14.34-6.51-14.34-17.17ZM493.69,196.73c5.26,0,9-3.84,9-10.96s-3.74-10.96-9-10.96-9.03,3.81-9.03,10.96,3.74,10.96,9.03,10.96Z"/><path class="cls-2" d="M542.62,195.52h-.09v6.81h-7.57v-45.14h7.82v18.59h.15c1.61-3.75,5.38-7.21,11.93-7.21,8.78,0,14.07,6.87,14.07,17.2s-5.75,17.17-14.34,17.17c-7.14,0-10.33-3.6-11.96-7.42ZM551.7,196.73c5.26,0,9.03-3.84,9.03-10.96s-3.77-10.96-9.03-10.96-9,3.81-9,10.96,3.74,10.96,9,10.96Z"/><path class="cls-2" d="M572.24,215.44v-6.33c.9.27,2.23.45,3.59.45,3.46,0,4.98-1.18,5.94-3.81l1.14-3.09-13.17-33.45h8.38l6.21,17.2c.87,2.42,2.26,6.72,2.47,7.75.25-1.18,1.64-4.93,2.44-7.36l5.78-17.59h8.13l-14.44,38.54c-2.1,5.72-4.95,8.08-11.62,8.08-1.95,0-3.68-.18-4.85-.39Z"/></g></svg>